<svg width="604" height="292" viewBox="0 0 604 292" fill="none" xmlns="http://www.w3.org/2000/svg">
<rect width="604" height="292" fill="white"/>
<path d="M46.88 172.24C32.8 172.24 22.08 168.027 14.72 159.6C7.36 151.067 3.68 139.6 3.68 125.2C3.68 115.707 5.28 107.493 8.48 100.56C11.68 93.52 16.48 88.08 22.88 84.24C29.28 80.2933 37.28 78.32 46.88 78.32C60.96 78.32 71.6267 82.5867 78.88 91.12C86.24 99.5467 89.92 110.907 89.92 125.2C89.92 134.48 88.2667 142.693 84.96 149.84C81.76 156.88 76.96 162.373 70.56 166.32C64.2667 170.267 56.3733 172.24 46.88 172.24ZM46.88 165.36C54.88 165.36 61.4933 163.707 66.72 160.4C72.0533 156.987 76.0533 152.293 78.72 146.32C81.4933 140.24 82.88 133.2 82.88 125.2C82.88 117.093 81.5467 110.053 78.88 104.08C76.32 98.1067 72.32 93.4667 66.88 90.16C61.5467 86.8533 54.88 85.2 46.88 85.2C35.04 85.2 26.08 88.72 20 95.76C13.92 102.8 10.88 112.613 10.88 125.2C10.88 133.093 12.16 140.08 14.72 146.16C17.28 152.133 21.2267 156.827 26.56 160.24C32 163.653 38.7733 165.36 46.88 165.36ZM128.094 171.6C123.72 171.6 119.987 171.013 116.894 169.84C113.8 168.56 111.24 166.96 109.214 165.04C107.187 163.12 105.587 161.147 104.414 159.12C103.24 157.093 102.387 155.227 101.854 153.52C101.427 151.813 101.214 150.533 101.214 149.68H108.414C108.414 149.787 108.52 150.693 108.734 152.4C109.054 154 109.8 155.867 110.974 158C112.254 160.133 114.227 162 116.894 163.6C119.56 165.093 123.294 165.84 128.094 165.84C131.614 165.84 134.814 165.467 137.694 164.72C140.574 163.867 142.867 162.587 144.574 160.88C146.28 159.067 147.134 156.72 147.134 153.84C147.134 150.427 146.014 147.813 143.774 146C141.64 144.08 138.867 142.693 135.454 141.84C132.04 140.88 128.467 140.027 124.734 139.28C121 138.427 117.427 137.36 114.014 136.08C110.707 134.8 107.987 132.933 105.854 130.48C103.827 128.027 102.814 124.667 102.814 120.4C102.92 115.28 105.32 111.173 110.014 108.08C114.707 104.88 120.734 103.28 128.094 103.28C130.867 103.28 133.8 103.6 136.894 104.24C139.987 104.88 142.814 106 145.374 107.6C148.04 109.2 150.174 111.387 151.774 114.16C153.48 116.933 154.174 120.56 153.854 125.04H146.814C146.92 121.733 146.334 119.067 145.054 117.04C143.88 115.013 142.227 113.467 140.094 112.4C138.067 111.227 135.934 110.48 133.694 110.16C131.454 109.84 129.427 109.68 127.614 109.68C122.6 109.68 118.334 110.587 114.814 112.4C111.4 114.213 109.694 116.987 109.694 120.72C109.694 123.813 110.76 126.213 112.894 127.92C115.027 129.627 117.8 130.96 121.214 131.92C124.627 132.773 128.2 133.573 131.934 134.32C135.667 135.067 139.24 136.133 142.654 137.52C146.067 138.907 148.84 140.88 150.974 143.44C153.107 146 154.174 149.573 154.174 154.16C154.174 158.32 153 161.68 150.654 164.24C148.414 166.8 145.32 168.667 141.374 169.84C137.427 171.013 133 171.6 128.094 171.6ZM168.011 170V105.04H175.371V170H168.011ZM171.851 94.64C169.718 94.64 168.225 94.1067 167.371 93.04C166.625 91.8667 166.251 90.5333 166.251 89.04C166.251 87.5467 166.625 86.2667 167.371 85.2C168.225 84.1333 169.718 83.6 171.851 83.6C174.091 83.6 175.531 84.1333 176.171 85.2C176.918 86.2667 177.291 87.5467 177.291 89.04C177.291 90.5333 176.918 91.8667 176.171 93.04C175.531 94.1067 174.091 94.64 171.851 94.64ZM337.068 171.6C330.348 171.6 324.694 170.213 320.108 167.44C315.628 164.56 312.268 160.613 310.028 155.6C307.788 150.587 306.668 144.88 306.668 138.48C306.668 131.973 307.788 126.213 310.028 121.2C312.268 116.08 315.628 112.133 320.108 109.36C324.694 106.48 330.348 105.04 337.068 105.04C346.881 105.04 354.348 108.133 359.468 114.32C364.694 120.4 367.308 128.453 367.308 138.48C367.308 144.667 366.241 150.32 364.108 155.44C361.974 160.453 358.668 164.4 354.188 167.28C349.708 170.16 344.001 171.6 337.068 171.6ZM337.068 165.04C343.041 165.04 347.681 163.707 350.988 161.04C354.294 158.373 356.588 155.013 357.868 150.96C359.254 146.8 359.948 142.587 359.948 138.32C359.948 133.947 359.254 129.733 357.868 125.68C356.588 121.52 354.294 118.107 350.988 115.44C347.681 112.773 343.041 111.44 337.068 111.44C331.201 111.44 326.561 112.773 323.148 115.44C319.734 118.107 317.334 121.52 315.948 125.68C314.668 129.733 314.028 133.947 314.028 138.32C314.028 142.587 314.668 146.8 315.948 150.96C317.334 155.013 319.734 158.373 323.148 161.04C326.561 163.707 331.201 165.04 337.068 165.04ZM427.339 105.04H434.699V107.12L409.099 170H398.539L372.939 107.28V105.04H380.139L403.819 164.08H404.139L427.339 105.04ZM446.136 170V105.04H453.496V170H446.136ZM449.976 94.64C447.843 94.64 446.35 94.1067 445.496 93.04C444.75 91.8667 444.376 90.5333 444.376 89.04C444.376 87.5467 444.75 86.2667 445.496 85.2C446.35 84.1333 447.843 83.6 449.976 83.6C452.216 83.6 453.656 84.1333 454.296 85.2C455.043 86.2667 455.416 87.5467 455.416 89.04C455.416 90.5333 455.043 91.8667 454.296 93.04C453.656 94.1067 452.216 94.64 449.976 94.64ZM497.388 171.6C491.308 171.6 485.921 170.32 481.228 167.76C476.641 165.2 473.014 161.467 470.348 156.56C467.681 151.653 466.348 145.84 466.348 139.12C466.561 132.293 467.948 126.32 470.508 121.2C473.174 116.08 476.854 112.133 481.548 109.36C486.241 106.48 491.681 105.04 497.868 105.04C503.201 105.04 507.894 106.053 511.948 108.08C516.001 110 519.308 112.667 521.868 116.08C524.534 119.493 526.241 123.387 526.988 127.76H520.108C519.041 122.747 516.534 118.853 512.588 116.08C508.641 113.2 503.788 111.76 498.028 111.76C493.121 111.76 488.854 112.933 485.228 115.28C481.601 117.52 478.774 120.667 476.748 124.72C474.721 128.773 473.654 133.467 473.548 138.8C473.548 146.693 475.681 153.04 479.948 157.84C484.321 162.533 490.188 164.88 497.548 164.88C503.308 164.88 508.214 163.44 512.268 160.56C516.428 157.68 519.041 153.733 520.108 148.72H526.988C526.241 153.093 524.481 156.987 521.708 160.4C519.041 163.813 515.628 166.533 511.468 168.56C507.414 170.587 502.721 171.6 497.388 171.6ZM539.841 170V79.92H547.201V122.32H547.521C547.735 121.573 548.268 120.293 549.121 118.48C549.975 116.667 551.308 114.747 553.121 112.72C554.935 110.587 557.281 108.773 560.161 107.28C563.148 105.787 566.828 105.04 571.201 105.04C575.681 105.04 579.415 105.68 582.401 106.96C585.388 108.24 587.788 110 589.601 112.24C591.521 114.48 592.961 117.04 593.921 119.92C594.881 122.693 595.521 125.627 595.841 128.72C596.161 131.707 596.321 134.747 596.321 137.84V170H589.281V137.84C589.281 132.507 588.695 127.92 587.521 124.08C586.348 120.133 584.375 117.093 581.601 114.96C578.828 112.827 574.935 111.76 569.921 111.76C564.801 111.76 560.535 113.04 557.121 115.6C553.815 118.16 551.308 121.52 549.601 125.68C548.001 129.84 547.201 134.373 547.201 139.28V170H539.841Z" fill="#3A533F"/>
<path d="M239.784 69.6867C239.784 69.6867 242.378 73.5032 243.017 76.3552C243.495 78.4836 243.507 80.1713 243.311 81.9326C243.115 83.6939 242.723 87.2752 242.723 87.51C242.723 87.7449 242.331 89.7606 242.135 90.7391C241.94 91.7175 241.271 93.0773 240.666 94.5552C239.81 96.6452 239.431 97.8752 238.315 99.839C237.497 101.277 236.902 102 235.963 103.362C234.844 104.986 234.237 105.915 233.024 107.471C231.823 109.012 231.115 109.851 229.791 111.287C228.472 112.719 227.688 113.482 226.264 114.81C225.254 115.752 224.63 116.218 223.619 117.158C222.075 118.595 221.24 119.435 219.798 120.974C217.74 123.172 216.641 124.463 214.801 126.845C214.572 127.648 215.143 126.377 214.801 127.139C214.2 128.479 212.698 130.628 211.862 131.836C211.101 132.936 210.694 133.574 210.099 134.771C208.872 137.24 208.049 138.529 206.866 141.019C206.182 142.458 205.69 143.661 205.396 145.422C205.073 147.358 204.754 148.382 204.514 150.329C204.189 152.968 204.126 154.213 204.22 156.87C204.295 158.961 204.373 160.108 204.808 162.154C205.277 164.357 205.678 165.184 206.278 167.355C206.723 168.964 206.877 169.981 207.453 171.548C208.109 173.329 209.159 175.183 210.099 176.832C210.918 178.269 211.476 179.018 212.45 180.354C214.319 182.918 215.49 184.493 217.741 186.729C218.699 187.233 220.386 188.49 220.386 188.49C220.386 188.49 222.443 189.958 223.325 190.839C224.207 191.719 225.525 192.6 226.474 193.481C227.423 194.361 228.233 195.056 229.203 195.829C230.472 196.84 231.258 197.566 232.436 198.682C233.557 199.742 234.555 200.549 235.669 201.617C237.485 203.358 237.304 203.28 238.902 205.223C240.258 206.87 240.363 206.678 241.548 208.452C242.52 209.908 243.087 210.717 243.899 212.268C244.542 213.495 244.814 214.227 245.369 215.497C245.965 216.863 246.34 217.615 246.838 219.02C247.59 221.143 248.039 222.361 248.308 224.597C248.54 226.532 248.379 227.64 248.308 229.587C248.21 232.232 248.081 233.717 247.72 236.339C246.916 239.319 245.662 243.971 245.662 243.971L243.899 248.961L241.548 254.539C241.548 254.539 240.652 257.938 240.078 260.116C239.734 261.721 239.492 262.611 239.196 264.226C238.925 265.709 238.702 266.537 238.608 268.042C238.545 269.072 238.608 269.652 238.608 270.684C238.608 272.862 238.189 274.124 238.608 276.261C238.888 277.684 239.312 278.413 239.784 279.784C240.34 281.395 240.615 282.313 241.254 283.894C241.581 284.703 241.731 285.174 242.135 285.948C242.709 287.048 243.108 287.635 243.899 288.59C244.987 289.904 247.132 291.526 247.132 291.526C247.132 291.526 246.575 291.008 246.25 290.645C245.422 289.721 245.328 288.915 244.487 288.003C244.267 287.765 244.095 287.674 243.899 287.416C243.326 286.664 243.56 285.98 243.311 285.068C242.997 283.913 242.622 283.314 242.429 282.132C242.189 280.661 242.429 279.806 242.429 278.316C242.429 277.284 242.429 276.706 242.429 275.674C242.429 274.413 242.212 273.687 242.429 272.445C242.617 271.374 242.977 270.838 243.311 269.803C243.791 268.319 244.01 267.472 244.487 265.987C244.93 264.606 245.096 263.8 245.662 262.465C246.324 260.906 246.89 260.124 247.72 258.648C248.5 257.26 248.974 256.502 249.777 255.126C250.581 253.75 251.077 253.005 251.835 251.603C252.567 250.25 252.884 249.443 253.598 248.081C254.265 246.808 254.707 246.131 255.362 244.852C256.226 243.162 256.499 242.66 257.125 240.868C257.556 239.634 257.9 239.074 258.222 237.807C258.598 236.324 258.97 235.407 259.397 233.938C259.7 232.894 259.834 231.824 260.064 230.761C260.572 228.413 260.572 226.42 260.572 224.01C260.572 221.6 260.42 220.816 260.064 218.432C259.769 216.452 259.49 215.352 258.889 213.442C258.025 210.699 258.224 211.075 257.046 208.452C256.479 207.188 255.126 204.687 254.48 203.461C253.856 202.278 253.463 201.636 252.716 200.526C251.216 198.296 251.248 198.149 249.483 196.123C248.576 195.081 248.053 194.803 247.132 193.774C246.103 192.625 244.781 191.719 244.781 191.719L243.017 190.252L240.372 188.197C240.372 188.197 236.932 185.706 235.669 184.674C234.407 183.643 232.794 182.211 231.555 181.152C230.504 180.254 229.623 179.454 228.615 178.51C227.432 177.4 226.503 176.453 225.382 175.281C224.204 174.048 223.418 173.157 222.443 171.758C221.621 170.58 221.113 169.768 220.386 168.529C219.42 166.883 218.676 165.79 217.74 164.126C216.986 162.785 216.736 161.776 216.271 160.31C215.815 158.872 215.673 157.975 215.389 156.494C215.101 154.992 214.965 154.198 214.801 152.678C214.654 151.31 214.736 150.529 214.801 149.155C214.922 146.613 215.162 145.189 215.683 142.697C215.973 141.309 216.102 140.515 216.565 139.174C217.1 137.623 217.57 136.815 218.328 135.358C219.445 133.213 220.272 132.121 221.561 130.074C223.019 127.76 223.672 126.339 225.382 124.204C226.55 122.746 227.395 122.094 228.615 120.681C229.681 119.447 230.222 118.708 231.261 117.452C232.402 116.071 233.101 115.345 234.2 113.929C235.156 112.697 236.551 110.7 236.551 110.7C236.551 110.7 238.315 107.373 239.196 106.297C240.078 105.221 241.526 102.818 241.842 102.187C242.136 101.6 242.723 100.049 243.017 98.6648C243.311 97.2802 243.696 96.0493 243.899 94.5552C244.179 92.4979 244.276 91.3368 244.487 89.2713C244.744 86.752 245.181 85.3435 245.075 82.8132C245.002 81.08 244.844 80.1078 244.487 78.41C244.144 76.7765 244.011 75.8163 243.311 74.3004C242.35 72.2181 239.784 69.6867 239.784 69.6867Z" fill="#4B6A50"/>
<path d="M214.801 126.845C213.424 128.106 212.269 129.814 210.98 131.166C208.982 133.261 208.071 134.636 206.453 137.036C205.401 138.599 204.842 139.499 203.926 141.146C202.631 143.477 202.035 144.858 200.987 147.311C199.974 149.68 199.325 150.993 198.636 153.475C198.197 155.057 197.985 154.869 197.754 156.494C197.512 158.2 196.872 162.952 196.872 163.245C196.872 163.539 196.872 165.3 196.872 167.649C196.872 169.024 196.873 168.823 197.166 170.878C197.309 171.875 197.754 173.896 198.048 174.694C198.587 176.157 198.636 175.868 199.224 177.253C200.065 179.236 200.586 180.329 201.575 182.243C202.542 184.113 203.074 185.174 204.22 186.94C205.469 188.863 206.306 189.852 207.747 191.636C209.178 193.407 210.008 194.381 211.568 196.04C214.349 198.996 216.297 200.258 219.21 203.085C220.84 204.666 221.718 205.589 223.325 207.194C224.817 208.685 225.669 209.505 227.146 211.011C229.362 213.27 230.837 214.347 232.73 216.882C234.331 219.025 234.945 220.422 236.257 222.752C237.717 225.345 238.7 226.734 239.784 229.504C240.485 231.294 240.815 232.33 241.254 234.201C241.99 237.344 242.242 237.224 242.08 240.449C241.97 242.651 241.583 245.817 241.254 247.998C240.891 250.402 240.703 251.753 240.372 254.162C240.136 255.881 240.164 258.384 240.078 260.116C240.027 259.086 240.027 261.147 240.078 260.116C240.652 257.938 241.548 254.539 241.548 254.539L243.899 248.961L245.662 243.971C245.662 243.971 246.916 239.319 247.72 236.339C247.49 233.473 247.528 233.552 247.426 230.678C247.345 228.387 247.229 227.443 246.838 225.184C246.398 222.646 245.369 219.607 245.369 219.607L243.605 215.79C243.605 215.79 241.248 211.592 239.784 209.543C238.321 207.494 234.2 203.461 234.2 203.461C234.2 203.461 231.23 200.609 229.791 199.352C228.352 198.094 226.925 197.076 225.088 195.242C223.596 193.752 221.343 191.033 220.974 190.545C220.604 190.058 219.088 188.246 217.741 186.729C215.49 184.493 214.319 182.918 212.45 180.354C211.476 179.018 210.918 178.269 210.099 176.832C209.159 175.183 208.109 173.329 207.453 171.548C206.877 169.981 206.723 168.964 206.278 167.355C205.678 165.184 205.277 164.357 204.808 162.154C204.373 160.108 204.295 158.961 204.22 156.87C204.126 154.213 204.189 152.968 204.514 150.329C204.754 148.382 205.073 147.358 205.396 145.422C205.69 143.661 206.182 142.458 206.866 141.019C208.049 138.529 208.872 137.24 210.099 134.771C210.694 133.574 211.101 132.936 211.862 131.836C212.698 130.628 214.2 128.479 214.801 127.139C215.143 126.377 214.572 127.648 214.801 126.845Z" fill="#D3DDD6"/>
<path d="M223.27 258.061L225.676 255.923L227.146 254.162L228.909 251.897L230.673 248.878L232.142 245.145C232.142 245.145 233.21 241.788 233.557 239.568C233.776 238.17 233.906 235.962 233.906 235.962C233.906 235.962 233.966 234.171 233.906 233.027C233.814 231.294 233.794 230.292 233.318 228.623C232.979 227.436 232.142 225.688 232.142 225.688L230.618 222.249C230.618 222.249 229.619 220.384 228.909 219.23C228.134 217.97 226.797 216.084 226.797 216.084C226.797 216.084 225.784 214.405 225.088 213.359C223.906 211.583 222.682 209.919 221.855 208.956C221.028 207.992 220.495 207.246 219.743 206.607C218.567 205.608 216.804 203.755 216.804 203.755L213.919 200.736L211.862 198.682L208.335 194.572L207.159 193.104L204.808 189.875L208.868 196.04L211.568 199.562L213.919 202.287L217.153 206.607L219.21 209.543L221.267 212.772L223.27 216.084L225.088 219.607L226.264 222.165L227.679 225.688L228.909 229.504L229.736 234.578L230.03 239.568C230.03 239.568 230.03 241.036 229.736 242.21C229.442 243.384 228.909 246.026 228.909 246.026L228.266 248.668L227.146 251.603L226.264 253.365L223.27 258.061Z" fill="#4B6A50"/>
<path d="M239.784 69.6867C240.078 70.8609 240.303 74.3313 240.372 76.6487C240.443 79.066 240.241 81.3121 240.078 82.2261C239.884 83.3172 239.041 85.4683 238.315 86.9229C237.309 88.9373 235.963 91.6197 235.375 92.4172C234.883 93.0858 231.848 98.0777 229.203 100.72C226.558 103.362 225.382 103.949 224.5 104.536C224.5 104.536 220.719 107.373 218.328 109.233C215.429 111.488 214.775 111.692 211.862 113.929C210.042 115.327 207.981 117.089 206.278 118.626C204.226 120.476 202.81 121.834 200.987 123.91C199.485 125.621 198.516 126.773 197.166 128.607C195.732 130.555 195.129 131.788 193.933 133.891C192.843 135.808 192.529 137.036 191.876 138.587C190.989 140.693 190.422 142.842 189.818 145.045C189.135 147.54 188.992 148.06 188.643 150.623C188.271 153.351 188.104 155.208 188.055 157.961C188.018 160.025 187.952 162.065 188.055 164.126C188.199 167.009 188.371 167.964 188.937 170.794C189.378 173.003 190.015 174.603 190.7 176.749C191.561 179.446 192.149 180.64 193.346 183.207C194.559 185.811 195.612 187.458 197.166 189.875C198.234 191.534 198.86 192.244 200.106 193.774C201.285 195.222 202.088 195.91 203.339 197.297C204.263 198.323 204.396 198.399 205.396 199.352C206.459 200.365 208.335 201.7 208.335 201.7C208.335 201.7 205.375 198.559 203.632 196.416C202.807 195.402 202.369 194.814 201.575 193.774C200.879 192.863 200.479 192.358 199.812 191.426C198.849 190.081 198.252 189.355 197.46 187.903C196.624 186.37 196.114 185.682 195.403 184.087C194.734 182.588 194.553 181.791 193.933 180.271C193.427 179.028 193.044 177.179 192.758 175.868C192.536 174.854 192.464 174.107 192.464 174.107V173.52C192.464 173.52 192.77 173.978 193.052 174.694C193.357 175.47 193.344 175.674 193.639 176.455C194.002 177.414 194.406 178.45 194.815 179.39C195.206 180.289 196.079 181.777 196.579 182.62C197.035 183.39 197.258 183.635 197.754 184.381C198.323 185.234 199.518 186.94 199.812 187.316C200.157 187.759 200.418 188.183 201.281 189.371C202.01 190.375 203.003 191.636 203.003 191.636L203.339 192.307C203.339 192.307 202.085 189.802 201.281 188.197C200.592 186.821 200.14 186.081 199.518 184.674C198.871 183.214 198.557 182.372 198.048 180.858C197.516 179.276 197.344 178.937 196.872 177.336C196.534 176.187 196.258 174.98 195.991 173.813C195.526 171.789 195.511 170.603 195.403 168.529C195.308 166.697 195.316 166.545 195.403 164.713C195.468 163.334 195.592 162.273 195.697 160.897C195.827 159.179 196.006 157.901 196.285 156.2C196.572 154.444 196.675 153.214 197.166 151.503C197.496 150.353 197.632 149.69 198.048 148.568C198.761 146.645 198.974 145.744 199.812 143.871C200.568 142.18 201.255 141.083 202.163 139.468C202.849 138.248 203.395 137.663 204.22 136.532C205.069 135.369 205.566 134.731 206.453 133.597C207.73 131.966 208.402 131.011 209.805 129.487C210.793 128.413 211.417 127.877 212.45 126.845C213.827 125.47 214.63 124.729 215.977 123.323C217.269 121.974 216.962 122.248 218.328 120.974C219.822 119.582 221.589 117.724 223.031 116.278C224.182 115.123 224.842 114.519 225.97 113.342C227.038 112.229 227.287 111.845 228.321 110.7C229.367 109.543 230.307 108.706 231.261 107.471C232.256 106.181 232.365 105.858 233.318 104.536C234.192 103.322 235.669 101.013 235.669 101.013C235.669 101.013 236.712 99.3875 237.433 98.0777C238.225 96.6394 239.196 94.8487 239.196 94.8487C239.196 94.8487 240.266 92.4428 240.666 90.8222C240.919 89.796 241.114 89.9415 241.842 86.0423C242.57 82.143 242.298 83.4003 242.429 82.5197C242.561 81.639 242.792 79.6355 242.429 77.8229C242.135 76.3552 241.548 74.677 241.548 74.677L239.784 69.6867Z" fill="#4B6A50"/>
<path d="M242.441 138.211C243.471 136.463 244.303 135.667 245.381 134.982C245.381 134.982 243.405 135.193 241.559 137.036C238.913 139.678 238.26 141.816 237.966 145.045C237.643 148.585 237.727 148.651 237.727 149.532C237.727 150.412 237.509 155.823 238.913 157.291C240.317 158.759 241.743 159.331 243.017 159.429C243.017 159.429 246.43 159.906 248.614 159.933C251.487 159.969 253.112 159.982 255.964 159.64C257.932 159.403 259.022 159.165 260.962 158.759C263.278 158.274 264.595 158.037 266.841 157.291C269.331 156.465 270.624 156.143 272.997 155.026C275.691 153.758 277.478 152.799 279.996 151.21C282.422 149.679 283.969 148.648 286.168 146.807C288.719 144.67 289.977 143.496 292.101 140.936C295.998 136.239 297.092 133.597 297.392 133.01C299.719 128.456 299.699 127.707 300.625 124.12C301.521 120.651 301.506 119.717 301.8 116.782C302.181 112.976 301.976 108.912 301.532 105.04C301.076 101.062 300.728 99.4222 299.394 95.6462C298.215 92.3089 297.051 90.5749 295.279 87.51C293.224 83.9553 291.83 82.6598 289.107 79.5846C288.587 78.9975 285.286 75.7828 284.11 74.8043C282.935 73.8258 279.532 70.6509 277.644 69.6867C275.757 68.7225 273.823 67.1721 271.178 65.7043C268.533 64.2366 266.547 63.4395 263.902 62.5588C260.943 61.5738 256.95 60.4112 253.837 60.2104C249.484 59.9294 247.904 59.9303 243.55 60.2104C239.742 60.4554 237.006 60.9348 233.263 61.6781C228.561 62.612 224.448 63.9848 220.098 65.9979C216.686 67.5769 214.901 68.7707 211.866 70.9882C208.519 73.4337 206.631 74.8918 203.929 78.0333C201.667 80.6624 200.541 82.3017 198.931 85.372C196.792 89.4507 195.915 91.9936 195.109 96.5268C194.606 99.3577 194.614 100.992 194.521 103.866C194.365 108.683 194.4 111.427 195.109 116.195C195.522 118.974 196.579 123.24 196.579 123.24C196.579 123.24 198.331 118.633 199.225 115.607C200.194 112.327 200.313 110.375 201.283 107.095C202.671 102.398 203.642 99.8016 205.692 95.3526C207.776 90.8311 208.992 88.264 211.866 84.1978C214.401 80.6119 215.998 78.6757 219.216 75.6849C221.972 73.1227 223.633 71.7532 226.859 69.814C229.896 67.989 231.719 67.0887 235.091 65.9979C238.647 64.8474 240.764 64.3867 244.499 64.2366C248.895 64.0598 251.426 64.5437 255.67 65.7043C259.001 66.6153 260.825 67.3669 263.902 68.9333C267.589 70.8107 269.539 72.1608 272.721 74.8043C276.468 77.9166 278.407 79.9492 281.247 83.9043C284.269 88.1134 285.758 90.7403 287.42 95.6462C288.662 99.3095 289.017 101.494 289.478 105.333C290.094 110.455 290.044 115.02 289.478 118.543C288.913 122.065 288.343 124.18 287.126 127.643C285.919 131.081 285.167 133.023 283.305 136.156C281.547 139.113 280.309 140.637 278.013 143.201C275.413 146.104 273.822 147.669 270.663 149.953C267.872 151.971 266.172 152.965 263.02 154.356C259.931 155.718 258.115 156.421 254.788 156.998C251.506 157.566 247.438 157.291 246.262 157.291C244.054 157.291 242.136 157.081 240.666 155.907C239.196 154.732 239.501 143.201 242.441 138.211Z" fill="#3A533F"/>
<path d="M249.189 91.243C249.808 90.8642 250.233 90.7458 250.953 90.6559C251.408 90.599 252.129 90.6559 252.129 90.6559C252.129 90.6559 252.309 90.6403 252.422 90.6559C252.548 90.673 252.671 90.7255 252.765 90.7987C252.95 90.942 253.024 91.1648 252.782 91.3569C252.701 91.4216 252.583 91.483 252.422 91.5365C252.353 91.5596 251.165 91.466 250.365 91.5365C249.584 91.6053 249.146 91.6822 248.388 91.8831C248.667 91.5961 248.848 91.452 249.189 91.243Z" fill="#3A533F"/>
<path d="M251.541 99.7559C250.071 100.343 246.838 100.049 246.838 100.049C246.838 100.049 249.32 101.111 250.953 100.93C252.035 100.81 251.835 100.93 253.01 100.637C253.259 100.574 253.598 100.343 253.598 100.343C253.598 100.343 253.661 100.311 253.769 100.253C254.231 100.001 255.508 99.2538 256.132 98.3621C256.633 97.6467 257.014 96.8943 257.014 96.3072C257.014 95.7201 255.545 97.4814 254.774 97.9946C254.318 98.2984 253.783 98.5512 253.424 98.7068C253.176 98.8141 253.01 98.8752 253.01 98.8752C253.01 98.8752 253.01 99.1688 251.541 99.7559Z" fill="#3A533F"/>
<path d="M231.261 118.626C230.789 119.258 228.298 122.563 227.734 123.323C226.557 124.907 227.053 124.316 225.97 125.965C224.876 127.631 224.596 128.35 223.619 130.074L222.149 133.01C222.149 133.01 221.443 134.757 220.68 136.826C219.987 138.705 219.771 139.097 219.21 141.019C218.804 142.411 218.373 143.425 218.034 144.835C217.629 146.522 217.528 147.799 217.447 149.532C217.35 151.596 217.422 152.774 217.741 154.816C218.032 156.684 218.351 157.625 218.916 159.429L219.798 161.567C220.386 162.952 220.267 162.81 221.268 164.713C222.229 166.543 224.011 168.823 224.207 169.116C224.403 169.41 226.094 171.656 227.146 172.932C228.54 174.623 229.068 175.046 230.673 176.538C232.397 178.141 233.264 178.776 235.082 180.271C236.73 181.627 238.931 182.996 239.196 183.207C239.462 183.417 243.605 186.436 243.899 186.729C244.364 187.193 245.663 187.903 248.014 189.665C249.519 190.792 249.93 191.644 251.247 193.187C252.573 194.741 253.563 195.946 254.774 197.59C255.849 199.051 256.544 200.112 257.419 201.7C258.262 203.23 259.13 204.772 259.77 206.397C260.528 208.32 260.572 208.844 261.24 210.8C261.709 212.172 262.078 213.793 262.416 215.203C262.576 215.874 262.886 217.354 263.004 219.313C263.128 221.373 263.297 221.946 263.297 224.01C263.297 225.844 263.422 226.583 263.297 228.413C263.179 230.144 262.559 233.275 262.122 234.954C261.784 236.253 261.405 237.509 260.946 238.77C260.487 240.031 260.571 239.793 260.064 241.036C259.638 242.081 259.078 242.951 258.595 243.971C258.156 244.898 257.584 246.073 257.125 246.99C256.838 247.563 256.688 247.843 256.537 248.122L256.537 248.123L255.95 249.255C255.95 249.255 258.13 247.084 259.183 245.439C260.012 244.143 260.845 242.705 261.534 241.329C262.452 239.495 262.397 239.65 263.298 237.807C264.356 235.64 264.946 234.13 265.943 231.936C266.771 230.112 267.366 228.551 268 226.652C268.634 224.752 268.83 224.304 269.176 222.332C269.515 220.399 269.679 218.632 269.764 216.671C269.813 215.526 269.764 215.469 269.764 214.323C269.764 212.718 269.848 211.229 269.764 209.626C269.66 207.666 269.47 205.893 269.176 204.636C268.882 203.378 268.479 201.785 268.294 201.196C268.109 200.607 267.412 198.652 266.825 197.086C266.237 195.521 265.394 193.637 264.473 192.096C263.461 190.403 263.62 190.64 262.416 189.078C261.421 187.787 259.71 185.864 258.595 184.674C257.318 183.312 256.445 182.496 255.068 181.235C253.691 179.974 252.938 179.456 251.541 178.216L251.502 178.182C249.944 176.799 249.057 176.013 247.426 174.694C245.963 173.511 245.929 173.637 244.487 172.428L244.314 172.284C243.159 171.316 241.735 170.124 240.666 169.116C239.249 167.782 239.104 167.64 237.727 166.264C236.923 165.461 235.82 164.402 235.082 163.539C234.171 162.475 234.402 162.723 233.612 161.567C232.912 160.543 231.885 159.033 231.261 157.961C230.615 156.854 230.337 156.563 229.791 155.403C229.31 154.381 229.016 153.44 228.615 152.384C228.024 150.823 227.689 149.925 227.44 148.274C227.148 146.347 227.146 143.871 227.146 143.367C227.146 142.863 227.244 141.131 227.44 139.762C227.636 138.392 227.734 137.496 228.028 135.735C228.322 133.974 228.615 132.521 228.909 131.249C229.203 129.977 229.713 129.13 230.379 127.516C230.85 126.374 231.351 125.334 231.848 124.203C232.572 122.561 233.665 120.551 233.906 120.094C234.146 119.636 234.87 118.499 235.082 118.122C235.293 117.745 236.257 116.165 236.845 115.187C237.433 114.208 238.034 112.981 238.609 111.664C239.189 110.335 239.59 109.071 239.784 108.058C240.227 105.745 240.272 105.583 239.978 106.087C239.225 107.378 239.452 106.824 238.609 108.058C238.052 108.873 236.714 110.862 236.14 111.664C235.566 112.467 234.982 113.365 234.494 114.223C234.494 114.223 231.733 117.994 231.261 118.626Z" fill="#3A533F"/>
<path d="M254.186 100.93C256.537 103.572 263.271 107.817 263.885 109.443C264.298 110.536 259.975 113.76 260.064 114.14C260.184 114.65 261.828 116.782 261.828 117.662C261.828 117.804 261.764 117.965 261.641 118.14C261.568 118.245 261.768 118.355 261.653 118.469C261.653 118.469 262.112 117.956 262.112 117.662C262.112 117.368 260.478 114.14 260.478 114.14C260.478 114.14 264.592 110.536 264.298 109.361C264.004 108.186 262.383 107.541 259.597 105.247C259.451 105.128 256.8 103.013 256.659 102.897C254.902 101.455 254.521 100.93 254.521 100.93L253.769 100.253C253.661 100.311 253.598 100.343 253.598 100.343C253.598 100.343 254.052 100.78 254.186 100.93Z" fill="#3A533F"/>
<path d="M258.128 120.526C257.834 120.82 260.358 121.185 260.946 121.772C261.534 122.359 259.183 124.707 259.183 124.707C259.183 124.707 261.08 129.652 259.77 132.34C259.338 133.226 259.303 133.454 258.128 134.335C256.952 135.216 245.381 134.982 245.381 134.982L245.063 135.192L247.844 135.217H250.488H253.427H255.483C255.483 135.217 257.375 135 257.54 134.923C257.705 134.845 257.834 134.923 258.421 134.629C259.002 134.339 259.597 133.454 259.891 132.866C260.037 132.572 260.405 131.684 260.478 131.103C260.608 130.079 260.58 129.486 260.478 128.459C260.409 127.764 260.184 126.696 260.184 126.696L259.891 125.521L259.597 124.639C259.597 124.639 260.312 123.984 260.772 123.17C261.232 122.356 261.36 121.995 261.36 121.701C261.36 121.407 258.691 120.67 258.556 120.598C258.421 120.526 259.009 120.232 259.009 120.232L259.639 119.812C259.445 119.936 259.175 119.829 259.009 119.938C258.568 120.228 258.421 120.232 258.128 120.526Z" fill="#3A533F"/>
<path d="M241.224 71.0757C245.545 75.4738 252.086 83.9435 252.716 89.1881L252.765 90.7987C252.95 90.942 253.024 91.1648 252.782 91.3569L253.01 98.8752C253.01 98.8752 253.176 98.8141 253.424 98.7068L253.133 91.4382L253.003 89.1881L252.251 86.4433L251.664 84.9742L250.782 83.5052L249.901 82.0361L249.019 80.567L247.844 78.5103L246.669 77.0412L245.2 75.2784L244.318 74.1031L243.143 72.9278L241.224 71.0757Z" fill="#3A533F"/>
<path d="M259.639 119.812L261.653 118.469C261.768 118.355 261.568 118.245 261.641 118.14L259.009 119.938C259.175 119.829 259.445 119.936 259.639 119.812Z" fill="#3A533F"/>
<path d="M239.196 106.297C238.315 107.373 236.551 110.7 236.551 110.7C236.551 110.7 235.156 112.697 234.2 113.929C233.101 115.345 232.402 116.071 231.261 117.452C230.222 118.708 229.681 119.447 228.615 120.681C227.395 122.094 226.55 122.746 225.382 124.204C223.672 126.339 223.019 127.76 221.561 130.074C220.272 132.121 219.445 133.213 218.328 135.358C217.57 136.815 217.1 137.623 216.565 139.174C216.102 140.515 215.973 141.309 215.683 142.697C215.162 145.189 214.922 146.613 214.801 149.155C214.736 150.529 214.654 151.31 214.801 152.678C214.965 154.198 215.101 154.992 215.389 156.494C215.673 157.975 215.815 158.872 216.271 160.31C216.736 161.776 216.986 162.785 217.74 164.126C218.676 165.79 219.42 166.883 220.386 168.529C221.113 169.768 221.621 170.58 222.443 171.758C223.418 173.157 224.204 174.048 225.382 175.281C226.503 176.453 227.432 177.4 228.615 178.51C229.623 179.454 230.504 180.254 231.555 181.152C232.794 182.211 234.407 183.643 235.669 184.674C236.932 185.706 240.372 188.197 240.372 188.197L243.017 190.252L244.781 191.719C244.781 191.719 246.103 192.625 247.132 193.774C248.053 194.803 248.576 195.081 249.483 196.123C251.248 198.149 251.216 198.296 252.716 200.526C253.463 201.636 253.856 202.278 254.48 203.461C255.126 204.687 256.479 207.188 257.046 208.452C258.224 211.075 258.025 210.699 258.889 213.442C259.49 215.352 259.769 216.452 260.064 218.432C260.42 220.816 260.572 221.6 260.572 224.01C260.572 226.42 260.572 228.413 260.064 230.761C259.834 231.824 259.7 232.894 259.397 233.938C258.97 235.407 258.598 236.324 258.222 237.807C257.9 239.074 257.556 239.634 257.125 240.868C256.499 242.66 256.226 243.162 255.362 244.852C254.707 246.131 254.265 246.808 253.598 248.081C252.91 250.717 251.247 254.539 251.247 254.539L252.345 253.624C252.345 253.624 253.304 252.448 253.598 252.155C253.741 252.012 255.362 249.842 255.95 249.255C256.236 248.682 256.387 248.403 256.537 248.123L256.537 248.122L257.125 246.99C257.584 246.073 258.156 244.898 258.595 243.971C259.078 242.951 259.638 242.081 260.064 241.036C260.571 239.793 260.487 240.031 260.946 238.77C261.405 237.509 261.784 236.253 262.122 234.954C262.559 233.275 263.179 230.144 263.297 228.413C263.422 226.583 263.297 225.844 263.297 224.01C263.297 221.946 263.128 221.373 263.004 219.313C262.886 217.354 262.576 215.874 262.416 215.203C262.078 213.793 261.709 212.172 261.24 210.8C260.572 208.844 260.528 208.32 259.77 206.397C259.13 204.772 258.262 203.23 257.419 201.7C256.544 200.112 255.849 199.051 254.774 197.59C253.563 195.946 252.573 194.741 251.247 193.187C249.93 191.644 249.519 190.792 248.014 189.665C245.663 187.903 244.364 187.193 243.899 186.729C243.605 186.436 239.462 183.417 239.196 183.207C238.931 182.996 236.73 181.627 235.082 180.271C233.264 178.776 232.397 178.141 230.673 176.538C229.068 175.046 228.54 174.623 227.146 172.932C226.094 171.656 224.403 169.41 224.207 169.116C224.011 168.823 222.229 166.543 221.268 164.713C220.267 162.81 220.386 162.952 219.798 161.567C219.504 161.05 218.935 159.491 218.916 159.429C218.351 157.625 218.032 156.684 217.741 154.816C217.422 152.774 217.35 151.596 217.447 149.532C217.528 147.799 217.629 146.522 218.034 144.835C218.373 143.425 218.804 142.411 219.21 141.019C219.771 139.097 219.987 138.705 220.68 136.826C221.443 134.757 222.149 133.01 222.149 133.01L223.619 130.074C224.596 128.35 224.876 127.631 225.97 125.965C227.053 124.316 226.557 124.907 227.734 123.323C228.298 122.563 230.789 119.258 231.261 118.626C231.733 117.994 234.494 114.223 234.494 114.223C234.982 113.365 235.566 112.467 236.14 111.664C236.714 110.862 238.052 108.873 238.609 108.058C239.452 106.824 239.225 107.378 239.978 106.087C239.587 106.616 239.49 105.939 239.196 106.297Z" fill="#E1EBE3"/>
</svg>
