<svg width="725" height="417" viewBox="0 0 725 417" fill="none" xmlns="http://www.w3.org/2000/svg">
<path d="M46.88 172.24C32.8 172.24 22.08 168.027 14.72 159.6C7.36 151.067 3.68 139.6 3.68 125.2C3.68 115.707 5.28 107.493 8.48 100.56C11.68 93.52 16.48 88.08 22.88 84.24C29.28 80.2933 37.28 78.32 46.88 78.32C60.96 78.32 71.6267 82.5867 78.88 91.12C86.24 99.5467 89.92 110.907 89.92 125.2C89.92 134.48 88.2667 142.693 84.96 149.84C81.76 156.88 76.96 162.373 70.56 166.32C64.2667 170.267 56.3733 172.24 46.88 172.24ZM46.88 165.36C54.88 165.36 61.4933 163.707 66.72 160.4C72.0533 156.987 76.0533 152.293 78.72 146.32C81.4933 140.24 82.88 133.2 82.88 125.2C82.88 117.093 81.5467 110.053 78.88 104.08C76.32 98.1067 72.32 93.4667 66.88 90.16C61.5467 86.8533 54.88 85.2 46.88 85.2C35.04 85.2 26.08 88.72 20 95.76C13.92 102.8 10.88 112.613 10.88 125.2C10.88 133.093 12.16 140.08 14.72 146.16C17.28 152.133 21.2267 156.827 26.56 160.24C32 163.653 38.7733 165.36 46.88 165.36ZM128.094 171.6C123.72 171.6 119.987 171.013 116.894 169.84C113.8 168.56 111.24 166.96 109.214 165.04C107.187 163.12 105.587 161.147 104.414 159.12C103.24 157.093 102.387 155.227 101.854 153.52C101.427 151.813 101.214 150.533 101.214 149.68H108.414C108.414 149.787 108.52 150.693 108.734 152.4C109.054 154 109.8 155.867 110.974 158C112.254 160.133 114.227 162 116.894 163.6C119.56 165.093 123.294 165.84 128.094 165.84C131.614 165.84 134.814 165.467 137.694 164.72C140.574 163.867 142.867 162.587 144.574 160.88C146.28 159.067 147.134 156.72 147.134 153.84C147.134 150.427 146.014 147.813 143.774 146C141.64 144.08 138.867 142.693 135.454 141.84C132.04 140.88 128.467 140.027 124.734 139.28C121 138.427 117.427 137.36 114.014 136.08C110.707 134.8 107.987 132.933 105.854 130.48C103.827 128.027 102.814 124.667 102.814 120.4C102.92 115.28 105.32 111.173 110.014 108.08C114.707 104.88 120.734 103.28 128.094 103.28C130.867 103.28 133.8 103.6 136.894 104.24C139.987 104.88 142.814 106 145.374 107.6C148.04 109.2 150.174 111.387 151.774 114.16C153.48 116.933 154.174 120.56 153.854 125.04H146.814C146.92 121.733 146.334 119.067 145.054 117.04C143.88 115.013 142.227 113.467 140.094 112.4C138.067 111.227 135.934 110.48 133.694 110.16C131.454 109.84 129.427 109.68 127.614 109.68C122.6 109.68 118.334 110.587 114.814 112.4C111.4 114.213 109.694 116.987 109.694 120.72C109.694 123.813 110.76 126.213 112.894 127.92C115.027 129.627 117.8 130.96 121.214 131.92C124.627 132.773 128.2 133.573 131.934 134.32C135.667 135.067 139.24 136.133 142.654 137.52C146.067 138.907 148.84 140.88 150.974 143.44C153.107 146 154.174 149.573 154.174 154.16C154.174 158.32 153 161.68 150.654 164.24C148.414 166.8 145.32 168.667 141.374 169.84C137.427 171.013 133 171.6 128.094 171.6ZM168.011 170V105.04H175.371V170H168.011ZM171.851 94.64C169.718 94.64 168.225 94.1067 167.371 93.04C166.625 91.8667 166.251 90.5333 166.251 89.04C166.251 87.5467 166.625 86.2667 167.371 85.2C168.225 84.1333 169.718 83.6 171.851 83.6C174.091 83.6 175.531 84.1333 176.171 85.2C176.918 86.2667 177.291 87.5467 177.291 89.04C177.291 90.5333 176.918 91.8667 176.171 93.04C175.531 94.1067 174.091 94.64 171.851 94.64ZM455.193 171.6C448.473 171.6 442.819 170.213 438.233 167.44C433.753 164.56 430.393 160.613 428.153 155.6C425.913 150.587 424.793 144.88 424.793 138.48C424.793 131.973 425.913 126.213 428.153 121.2C430.393 116.08 433.753 112.133 438.233 109.36C442.819 106.48 448.473 105.04 455.193 105.04C465.006 105.04 472.473 108.133 477.593 114.32C482.819 120.4 485.433 128.453 485.433 138.48C485.433 144.667 484.366 150.32 482.233 155.44C480.099 160.453 476.793 164.4 472.313 167.28C467.833 170.16 462.126 171.6 455.193 171.6ZM455.193 165.04C461.166 165.04 465.806 163.707 469.113 161.04C472.419 158.373 474.713 155.013 475.993 150.96C477.379 146.8 478.073 142.587 478.073 138.32C478.073 133.947 477.379 129.733 475.993 125.68C474.713 121.52 472.419 118.107 469.113 115.44C465.806 112.773 461.166 111.44 455.193 111.44C449.326 111.44 444.686 112.773 441.273 115.44C437.859 118.107 435.459 121.52 434.073 125.68C432.793 129.733 432.153 133.947 432.153 138.32C432.153 142.587 432.793 146.8 434.073 150.96C435.459 155.013 437.859 158.373 441.273 161.04C444.686 163.707 449.326 165.04 455.193 165.04ZM545.464 105.04H552.824V107.12L527.224 170H516.664L491.064 107.28V105.04H498.264L521.944 164.08H522.264L545.464 105.04ZM564.261 170V105.04H571.621V170H564.261ZM568.101 94.64C565.968 94.64 564.475 94.1067 563.621 93.04C562.875 91.8667 562.501 90.5333 562.501 89.04C562.501 87.5467 562.875 86.2667 563.621 85.2C564.475 84.1333 565.968 83.6 568.101 83.6C570.341 83.6 571.781 84.1333 572.421 85.2C573.168 86.2667 573.541 87.5467 573.541 89.04C573.541 90.5333 573.168 91.8667 572.421 93.04C571.781 94.1067 570.341 94.64 568.101 94.64ZM615.513 171.6C609.433 171.6 604.046 170.32 599.353 167.76C594.766 165.2 591.139 161.467 588.473 156.56C585.806 151.653 584.473 145.84 584.473 139.12C584.686 132.293 586.073 126.32 588.633 121.2C591.299 116.08 594.979 112.133 599.673 109.36C604.366 106.48 609.806 105.04 615.993 105.04C621.326 105.04 626.019 106.053 630.073 108.08C634.126 110 637.433 112.667 639.993 116.08C642.659 119.493 644.366 123.387 645.113 127.76H638.233C637.166 122.747 634.659 118.853 630.713 116.08C626.766 113.2 621.913 111.76 616.153 111.76C611.246 111.76 606.979 112.933 603.353 115.28C599.726 117.52 596.899 120.667 594.873 124.72C592.846 128.773 591.779 133.467 591.673 138.8C591.673 146.693 593.806 153.04 598.073 157.84C602.446 162.533 608.313 164.88 615.673 164.88C621.433 164.88 626.339 163.44 630.393 160.56C634.553 157.68 637.166 153.733 638.233 148.72H645.113C644.366 153.093 642.606 156.987 639.833 160.4C637.166 163.813 633.753 166.533 629.593 168.56C625.539 170.587 620.846 171.6 615.513 171.6ZM657.966 170V79.92H665.326V122.32H665.646C665.86 121.573 666.393 120.293 667.246 118.48C668.1 116.667 669.433 114.747 671.246 112.72C673.06 110.587 675.406 108.773 678.286 107.28C681.273 105.787 684.953 105.04 689.326 105.04C693.806 105.04 697.54 105.68 700.526 106.96C703.513 108.24 705.913 110 707.726 112.24C709.646 114.48 711.086 117.04 712.046 119.92C713.006 122.693 713.646 125.627 713.966 128.72C714.286 131.707 714.446 134.747 714.446 137.84V170H707.406V137.84C707.406 132.507 706.82 127.92 705.646 124.08C704.473 120.133 702.5 117.093 699.726 114.96C696.953 112.827 693.06 111.76 688.046 111.76C682.926 111.76 678.66 113.04 675.246 115.6C671.94 118.16 669.433 121.52 667.726 125.68C666.126 129.84 665.326 134.373 665.326 139.28V170H657.966Z" fill="#3A533F"/>
<path d="M298.124 39.4844C298.124 39.4844 302.537 45.9791 303.626 50.8325C304.438 54.4545 304.459 57.3266 304.126 60.3239C303.793 63.3212 303.126 69.4157 303.126 69.8153C303.126 70.2149 302.459 73.6452 302.125 75.3103C301.792 76.9755 300.655 79.2895 299.624 81.8044C298.168 85.361 297.522 87.4543 295.623 90.7962C294.232 93.2431 293.219 94.473 291.622 96.7908C289.717 99.5558 288.684 101.136 286.62 103.784C284.577 106.406 283.371 107.834 281.118 110.279C278.873 112.715 277.539 114.014 275.116 116.273C273.397 117.876 272.336 118.668 270.614 120.269C267.987 122.714 266.565 124.144 264.112 126.764C260.61 130.503 258.74 132.699 255.609 136.755C255.219 138.12 256.191 135.958 255.609 137.254C254.586 139.534 252.029 143.191 250.608 145.247C249.313 147.119 248.619 148.204 247.606 150.242C245.519 154.444 244.118 156.637 242.105 160.874C240.942 163.323 240.104 165.37 239.604 168.367C239.054 171.661 238.512 173.404 238.103 176.718C237.55 181.209 237.442 183.328 237.603 187.85C237.729 191.407 237.862 193.359 238.604 196.842C239.402 200.59 240.083 201.997 241.104 205.692C241.861 208.43 242.123 210.161 243.105 212.827C244.221 215.858 246.007 219.012 247.607 221.819C249 224.264 249.95 225.539 251.608 227.813C254.788 232.175 256.781 234.856 260.611 238.662C262.242 239.52 265.113 241.659 265.113 241.659C265.113 241.659 268.614 244.157 270.114 245.656C271.615 247.154 273.859 248.653 275.474 250.151C277.089 251.65 278.466 252.832 280.118 254.148C282.277 255.869 283.614 257.104 285.62 259.002C287.527 260.807 289.226 262.18 291.122 263.997C294.212 266.961 293.903 266.828 296.623 270.133C298.931 272.937 299.109 272.609 301.125 275.628C302.779 278.106 303.745 279.484 305.126 282.123C306.22 284.211 306.684 285.457 307.627 287.618C308.642 289.942 309.281 291.221 310.128 293.612C311.408 297.225 312.172 299.298 312.629 303.103C313.024 306.396 312.751 308.282 312.629 311.596C312.463 316.097 312.243 318.623 311.629 323.085C310.261 328.158 308.127 336.074 308.127 336.074L305.126 344.566L301.125 354.057C301.125 354.057 299.601 359.842 298.624 363.549C298.038 366.28 297.626 367.794 297.124 370.542C296.662 373.066 296.282 374.475 296.123 377.036C296.014 378.789 296.123 379.776 296.123 381.532C296.123 385.239 295.41 387.386 296.123 391.024C296.598 393.445 297.32 394.685 298.124 397.018C299.069 399.76 299.537 401.323 300.625 404.012C301.182 405.389 301.438 406.191 302.125 407.509C303.102 409.38 303.78 410.379 305.126 412.005C306.977 414.239 310.628 417 310.628 417C310.628 417 309.68 416.118 309.128 415.501C307.719 413.929 307.558 412.557 306.127 411.005C305.752 410.6 305.461 410.446 305.126 410.006C304.152 408.726 304.549 407.562 304.126 406.01C303.591 404.045 302.954 403.025 302.625 401.015C302.217 398.512 302.625 397.057 302.625 394.52C302.625 392.765 302.625 391.78 302.625 390.025C302.625 387.879 302.256 386.643 302.625 384.53C302.944 382.706 303.557 381.795 304.126 380.034C304.942 377.508 305.315 376.066 306.127 373.54C306.882 371.19 307.163 369.817 308.127 367.545C309.254 364.893 310.217 363.563 311.629 361.051C312.957 358.688 313.762 357.397 315.13 355.056C316.497 352.715 317.341 351.446 318.631 349.062C319.877 346.759 320.417 345.386 321.632 343.067C322.767 340.901 323.52 339.749 324.633 337.572C326.104 334.697 326.569 333.842 327.634 330.793C328.368 328.693 328.953 327.739 329.5 325.583C330.14 323.06 330.774 321.5 331.5 319C332.016 317.223 332.245 315.403 332.636 313.594C333.5 309.598 333.5 306.206 333.5 302.104C333.5 298.003 333.241 296.67 332.636 292.613C332.133 289.243 331.658 287.371 330.635 284.121C329.166 279.453 329.503 280.093 327.5 275.628C326.535 273.477 324.232 269.222 323.133 267.136C322.072 265.123 321.402 264.029 320.132 262.141C317.579 258.347 317.633 258.096 314.63 254.647C313.086 252.875 312.196 252.402 310.628 250.651C308.877 248.694 306.627 247.154 306.627 247.154L303.626 244.656L299.124 241.16C299.124 241.16 293.27 236.921 291.122 235.165C288.973 233.409 286.228 230.973 284.119 229.171C282.332 227.643 280.832 226.282 279.117 224.675C277.103 222.787 275.523 221.175 273.615 219.18C271.61 217.082 270.273 215.565 268.614 213.185C267.215 211.179 266.35 209.799 265.113 207.69C263.468 204.889 262.203 203.028 260.611 200.197C259.328 197.915 258.901 196.198 258.11 193.703C257.335 191.256 257.093 189.729 256.61 187.209C256.119 184.652 255.889 183.302 255.609 180.715C255.358 178.387 255.498 177.058 255.609 174.72C255.815 170.393 256.223 167.97 257.11 163.73C257.604 161.368 257.823 160.017 258.61 157.735C259.521 155.095 260.321 153.72 261.611 151.241C263.512 147.59 264.919 145.733 267.113 142.25C269.595 138.311 270.705 135.892 273.615 132.259C275.602 129.779 277.04 128.668 279.117 126.264C280.931 124.165 281.852 122.907 283.619 120.769C285.561 118.419 286.751 117.183 288.621 114.774C290.248 112.677 292.622 109.279 292.622 109.279C292.622 109.279 295.623 103.618 297.124 101.786C298.624 99.9546 301.088 95.865 301.625 94.7926C302.125 93.7935 303.126 91.1543 303.626 88.798C304.126 86.4418 304.781 84.347 305.126 81.8044C305.602 78.3034 305.768 76.3275 306.127 72.8126C306.565 68.5252 307.308 66.1283 307.127 61.8225C307.003 58.873 306.734 57.2186 306.127 54.3294C305.543 51.5494 305.316 49.9154 304.126 47.3357C302.491 43.7922 298.124 39.4844 298.124 39.4844Z" fill="#4B6A50"/>
<path d="M255.609 136.755C253.265 138.9 251.3 141.807 249.107 144.106C245.706 147.672 244.156 150.011 241.403 154.097C239.612 156.756 238.66 158.288 237.103 161.091C234.898 165.058 233.885 167.408 232.101 171.581C230.377 175.613 229.273 177.847 228.1 182.072C227.352 184.763 226.991 184.443 226.599 187.209C226.188 190.112 225.099 198.199 225.099 198.698C225.099 199.198 225.099 202.195 225.099 206.191C225.099 208.532 225.099 208.19 225.599 211.686C225.842 213.384 226.599 216.823 227.099 218.18C228.017 220.671 228.1 220.179 229.1 222.535C230.532 225.91 231.418 227.77 233.101 231.027C234.746 234.21 235.652 236.015 237.603 239.02C239.728 242.294 241.152 243.976 243.605 247.013C246.04 250.026 247.453 251.683 250.107 254.506C254.839 259.537 258.155 261.684 263.112 266.495C265.885 269.187 267.38 270.757 270.114 273.489C272.653 276.025 274.103 277.421 276.616 279.983C280.387 283.827 282.898 285.66 286.12 289.974C288.844 293.621 289.889 295.999 292.122 299.965C294.605 304.376 296.279 306.741 298.124 311.454C299.316 314.5 299.879 316.263 300.625 319.447C301.877 324.796 302.306 324.592 302.032 330.079C301.844 333.827 301.185 339.215 300.625 342.926C300.007 347.018 299.688 349.316 299.124 353.416C298.722 356.341 298.77 360.6 298.624 363.549C298.537 361.795 298.537 365.302 298.624 363.549C299.601 359.842 301.125 354.057 301.125 354.057L305.126 344.566L308.127 336.074C308.127 336.074 310.261 328.158 311.629 323.085C311.238 318.208 311.302 318.342 311.128 313.452C310.99 309.553 310.794 307.947 310.128 304.103C309.38 299.783 307.627 294.611 307.627 294.611L304.626 288.117C304.626 288.117 300.614 280.972 298.124 277.485C295.633 273.998 288.621 267.136 288.621 267.136C288.621 267.136 283.567 262.282 281.118 260.142C278.67 258.003 276.24 256.27 273.115 253.149C270.576 250.613 266.742 245.986 266.113 245.156C265.484 244.326 262.905 241.243 260.611 238.662C256.781 234.856 254.788 232.175 251.608 227.813C249.95 225.539 249 224.264 247.607 221.819C246.007 219.012 244.221 215.858 243.105 212.827C242.123 210.161 241.861 208.43 241.104 205.692C240.083 201.997 239.402 200.59 238.604 196.842C237.862 193.359 237.729 191.407 237.603 187.85C237.442 183.328 237.55 181.209 238.103 176.718C238.512 173.404 239.054 171.661 239.604 168.367C240.104 165.37 240.942 163.323 242.105 160.874C244.118 156.637 245.519 154.444 247.606 150.242C248.619 148.204 249.313 147.119 250.608 145.247C252.029 143.191 254.586 139.534 255.609 137.254C256.191 135.958 255.219 138.12 255.609 136.755Z" fill="#3A533F"/>
<path d="M270.021 360.052L274.116 356.413L276.616 353.416L279.617 349.561L282.618 344.424L285.119 338.072C285.119 338.072 286.936 332.358 287.527 328.58C287.899 326.202 288.12 322.444 288.12 322.444C288.12 322.444 288.223 319.397 288.12 317.449C287.965 314.501 287.93 312.795 287.12 309.956C286.544 307.935 285.119 304.96 285.119 304.96L282.525 299.107C282.525 299.107 280.825 295.934 279.617 293.97C278.298 291.825 276.023 288.617 276.023 288.617C276.023 288.617 274.299 285.759 273.115 283.979C271.104 280.957 269.02 278.126 267.613 276.486C266.206 274.846 265.298 273.577 264.019 272.49C262.017 270.789 259.017 267.636 259.017 267.636L254.109 262.499L250.607 259.002L244.605 252.008L242.605 249.51L238.603 244.015L245.512 254.506L250.107 260.5L254.109 265.138L259.61 272.49L263.112 277.485L266.613 282.98L270.021 288.617L273.115 294.611L275.116 298.966L277.523 304.96L279.617 311.454L281.024 320.088L281.525 328.58C281.525 328.58 281.525 331.078 281.024 333.076C280.524 335.074 279.617 339.57 279.617 339.57L278.524 344.066L276.616 349.062L275.116 352.059L270.021 360.052Z" fill="#3A533F"/>
<path d="M298.124 39.4844C298.624 41.4826 299.007 47.3884 299.124 51.3321C299.246 55.4456 298.901 59.268 298.624 60.8234C298.294 62.6801 296.859 66.3407 295.623 68.8162C293.912 72.2442 291.622 76.8089 290.621 78.1661C289.783 79.3039 284.619 87.7989 280.118 92.2948C275.616 96.7908 273.615 97.7899 272.115 98.7889C272.115 98.7889 265.679 103.617 261.611 106.782C256.678 110.62 255.565 110.967 250.608 114.774C247.511 117.153 244.003 120.152 241.104 122.767C237.613 125.916 235.202 128.226 232.101 131.759C229.545 134.671 227.895 136.632 225.599 139.752C223.158 143.068 222.131 145.165 220.097 148.744C218.242 152.007 217.707 154.097 216.596 156.736C215.087 160.32 214.122 163.977 213.095 167.726C211.931 171.971 211.689 172.857 211.094 177.218C210.46 181.861 210.177 185.021 210.094 189.706C210.031 193.217 209.919 196.69 210.094 200.197C210.338 205.103 210.632 206.728 211.594 211.545C212.345 215.304 213.43 218.026 214.595 221.677C216.06 226.268 217.061 228.299 219.097 232.667C221.163 237.099 222.953 239.902 225.599 244.015C227.415 246.839 228.48 248.047 230.601 250.651C232.607 253.115 233.974 254.286 236.102 256.646C237.676 258.391 237.902 258.521 239.604 260.142C241.413 261.867 244.605 264.139 244.605 264.139C244.605 264.139 239.568 258.794 236.603 255.147C235.199 253.42 234.452 252.419 233.101 250.651C231.917 249.1 231.236 248.242 230.1 246.655C228.462 244.366 227.447 243.131 226.099 240.66C224.675 238.051 223.809 236.88 222.598 234.166C221.46 231.614 221.151 230.259 220.097 227.672C219.235 225.557 218.583 222.41 218.096 220.179C217.72 218.453 217.596 217.181 217.596 217.181V216.182C217.596 216.182 218.117 216.963 218.596 218.18C219.117 219.502 219.094 219.849 219.597 221.178C220.215 222.81 220.901 224.573 221.598 226.173C222.263 227.702 223.749 230.234 224.599 231.668C225.376 232.979 225.754 233.397 226.599 234.666C227.567 236.118 229.6 239.02 230.1 239.661C230.688 240.414 231.132 241.136 232.601 243.158C233.842 244.866 235.531 247.013 235.531 247.013L236.102 248.153C236.102 248.153 233.968 243.891 232.601 241.16C231.429 238.819 230.66 237.559 229.6 235.165C228.5 232.68 227.965 231.247 227.099 228.671C226.195 225.978 225.901 225.402 225.099 222.676C224.523 220.722 224.054 218.667 223.598 216.682C222.807 213.238 222.781 211.218 222.598 207.69C222.436 204.573 222.449 204.314 222.598 201.196C222.709 198.849 222.92 197.044 223.098 194.702C223.32 191.777 223.625 189.603 224.098 186.709C224.588 183.72 224.764 181.628 225.599 178.716C226.16 176.758 226.391 175.631 227.099 173.721C228.313 170.449 228.676 168.915 230.1 165.728C231.387 162.85 232.556 160.983 234.102 158.235C235.269 156.159 236.198 155.164 237.603 153.239C239.048 151.26 239.892 150.174 241.403 148.244C243.576 145.469 244.72 143.844 247.106 141.25C248.789 139.422 249.85 138.51 251.608 136.754C253.952 134.413 255.318 133.152 257.61 130.76C259.808 128.465 259.287 128.931 261.611 126.764C264.153 124.393 267.161 121.233 269.614 118.771C271.572 116.805 272.695 115.778 274.616 113.775C276.434 111.88 276.857 111.228 278.617 109.279C280.397 107.309 281.997 105.886 283.619 103.784C285.313 101.588 285.499 101.04 287.12 98.7889C288.607 96.7242 291.122 92.7944 291.122 92.7944C291.122 92.7944 292.895 90.0278 294.123 87.7989C295.47 85.3513 297.124 82.3039 297.124 82.3039C297.124 82.3039 298.943 78.2096 299.624 75.4517C300.056 73.7055 300.386 73.9531 301.625 67.3175C302.864 60.682 302.402 62.8216 302.626 61.323C302.849 59.8243 303.243 56.4148 302.626 53.3302C302.125 50.8325 301.125 47.9767 301.125 47.9767L298.124 39.4844Z" fill="#3A533F"/>
<path d="M302.645 156.095C304.397 153.12 305.813 151.766 307.648 150.6C307.648 150.6 304.286 150.959 301.144 154.097C296.641 158.593 295.53 162.231 295.029 167.726C294.481 173.749 294.623 173.862 294.623 175.361C294.623 176.86 294.252 186.068 296.641 188.566C299.031 191.063 301.458 192.038 303.626 192.204C303.626 192.204 309.434 193.015 313.151 193.062C318.039 193.123 320.805 193.145 325.658 192.562C329.007 192.16 330.862 191.755 334.163 191.063C338.105 190.238 340.346 189.834 344.169 188.566C348.405 187.16 350.605 186.611 354.643 184.711C359.228 182.553 362.27 180.921 366.554 178.217C370.683 175.611 373.315 173.858 377.058 170.724C381.399 167.088 383.54 165.089 387.155 160.733C393.785 152.74 395.647 148.244 396.158 147.245C400.118 139.495 400.084 138.221 401.659 132.117C403.184 126.212 403.16 124.624 403.66 119.628C404.309 113.152 403.959 106.236 403.203 99.6465C402.427 92.8767 401.836 90.0869 399.565 83.6611C397.559 77.9818 395.579 75.0309 392.563 69.8153C389.065 63.766 386.693 61.5614 382.059 56.3282C381.175 55.3291 375.557 49.8584 373.556 48.1933C371.556 46.5281 365.765 41.1252 362.553 39.4844C359.34 37.8436 356.05 35.2051 351.549 32.7073C347.047 30.2096 343.667 28.8531 339.166 27.3545C334.131 25.6782 327.335 23.6998 322.039 23.358C314.63 22.8799 311.941 22.8814 304.533 23.3581C298.051 23.775 293.396 24.5909 287.027 25.8558C279.024 27.4449 272.025 29.7811 264.623 33.2069C258.816 35.894 255.779 37.9255 250.614 41.6992C244.919 45.8608 241.705 48.3422 237.107 53.6883C233.258 58.1624 231.342 60.952 228.602 66.1769C224.962 73.1179 223.469 77.4453 222.098 85.1597C221.241 89.9771 221.255 92.7582 221.097 97.6483C220.832 105.847 220.892 110.515 222.098 118.629C222.801 123.36 224.599 130.618 224.599 130.618C224.599 130.618 227.58 122.778 229.102 117.63C230.752 112.048 230.954 108.725 232.604 103.143C234.966 95.1501 236.62 90.7326 240.108 83.1615C243.654 75.467 245.723 71.0984 250.614 64.1787C254.928 58.0764 257.646 54.7814 263.122 49.6919C267.813 45.3316 270.638 43.001 276.129 39.701C281.297 36.5953 284.4 35.0632 290.137 33.2069C296.189 31.2491 299.791 30.4651 306.147 30.2096C313.629 29.9088 317.935 30.7322 325.158 32.7073C330.826 34.2576 333.93 35.5367 339.166 38.2023C345.442 41.3972 348.759 43.6947 354.175 48.1933C360.55 53.4897 363.851 56.9487 368.683 63.6792C373.826 70.8422 376.361 75.3124 379.189 83.6611C381.301 89.895 381.905 93.612 382.691 100.146C383.739 108.862 383.653 116.631 382.691 122.626C381.729 128.62 380.759 132.218 378.689 138.112C376.634 143.962 375.354 147.267 372.185 152.598C369.193 157.631 367.087 160.225 363.18 164.588C358.756 169.528 356.048 172.191 350.673 176.077C345.922 179.511 343.029 181.204 337.665 183.57C332.409 185.889 329.318 187.085 323.657 188.066C318.071 189.034 311.15 188.566 309.148 188.566C305.39 188.566 302.126 188.208 299.624 186.21C297.123 184.211 297.642 164.588 302.645 156.095Z" fill="#3A533F"/>
<path d="M314.129 76.1679C315.183 75.5233 315.905 75.3218 317.13 75.1688C317.906 75.072 319.131 75.1688 319.131 75.1688C319.131 75.1688 319.438 75.1423 319.631 75.1688C319.844 75.198 320.054 75.2873 320.215 75.4118C320.529 75.6557 320.654 76.0348 320.243 76.3617C320.105 76.4719 319.905 76.5762 319.631 76.6674C319.514 76.7066 317.492 76.5475 316.13 76.6674C314.801 76.7845 314.055 76.9153 312.766 77.2572C313.241 76.7688 313.548 76.5237 314.129 76.1679Z" fill="#3A533F"/>
<path d="M318.131 90.6547C315.63 91.6538 310.128 91.1543 310.128 91.1543C310.128 91.1543 314.351 92.9614 317.13 92.6529C318.972 92.4485 318.631 92.6529 320.632 92.1534C321.055 92.0476 321.632 91.6538 321.632 91.6538C321.632 91.6538 321.74 91.6 321.923 91.5C322.709 91.0724 324.881 89.8003 325.945 88.2828C326.797 87.0654 327.445 85.7851 327.445 84.786C327.445 83.7869 324.944 86.7842 323.633 87.6575C322.856 88.1745 321.947 88.6046 321.335 88.8695C320.913 89.052 320.632 89.1561 320.632 89.1561C320.632 89.1561 320.632 89.6556 318.131 90.6547Z" fill="#3A533F"/>
<path d="M283.619 122.767C282.816 123.843 278.578 129.466 277.617 130.76C275.614 133.455 276.459 132.45 274.616 135.256C272.753 138.091 272.277 139.315 270.614 142.25L268.114 147.245C268.114 147.245 266.911 150.218 265.613 153.739C264.434 156.936 264.067 157.603 263.112 160.874C262.42 163.243 261.688 164.969 261.111 167.368C260.421 170.239 260.249 172.412 260.111 175.361C259.946 178.874 260.069 180.878 260.611 184.353C261.107 187.532 261.651 189.133 262.612 192.204L264.112 195.842C265.112 198.199 264.911 197.957 266.613 201.196C268.249 204.31 271.281 208.19 271.615 208.689C271.948 209.189 274.826 213.011 276.617 215.183C278.988 218.061 279.887 218.78 282.619 221.319C285.552 224.047 287.028 225.127 290.121 227.672C292.926 229.979 296.672 232.309 297.124 232.667C297.575 233.025 304.626 238.162 305.126 238.662C305.917 239.452 308.127 240.66 312.129 243.657C314.691 245.577 315.389 247.025 317.631 249.652C319.887 252.295 321.573 254.347 323.633 257.145C325.462 259.63 326.645 261.437 328.134 264.139C329.569 266.742 331.046 269.366 332.136 272.131C333.425 275.404 333.499 276.296 334.637 279.625C335.435 281.96 336.062 284.718 336.637 287.118C336.91 288.259 337.437 290.778 337.638 294.112C337.849 297.617 338.138 298.593 338.138 302.104C338.138 305.226 338.351 306.483 338.138 309.598C337.937 312.543 336.881 317.872 336.137 320.729C335.561 322.939 334.918 325.077 334.136 327.223C333.355 329.369 333.498 328.963 332.636 331.078C331.911 332.858 330.958 334.337 330.135 336.074C329.388 337.651 328.415 339.65 327.634 341.21C327.146 342.186 326.89 342.662 326.634 343.138L326.633 343.139L325.633 345.065C325.633 345.065 329.344 341.37 331.135 338.571C332.547 336.366 333.965 333.919 335.137 331.578C336.699 328.456 336.606 328.72 338.138 325.583C339.938 321.897 340.942 319.327 342.639 315.592C344.049 312.49 345.062 309.832 346.141 306.6C347.219 303.368 347.552 302.604 348.141 299.249C348.719 295.959 348.997 292.952 349.142 289.616C349.226 287.667 349.142 287.57 349.142 285.619C349.142 282.888 349.286 280.354 349.142 277.627C348.966 274.292 348.642 271.274 348.141 269.134C347.641 266.995 346.955 264.283 346.641 263.281C346.326 262.279 345.14 258.952 344.14 256.287C343.14 253.623 341.706 250.417 340.139 247.795C338.416 244.913 338.687 245.318 336.637 242.658C334.944 240.461 332.032 237.189 330.135 235.165C327.962 232.847 326.477 231.458 324.133 229.312C321.789 227.166 320.508 226.284 318.131 224.175L318.065 224.116C315.413 221.764 313.905 220.425 311.129 218.18C308.639 216.167 308.581 216.382 306.127 214.326L305.833 214.079C303.867 212.433 301.444 210.403 299.625 208.689C297.213 206.418 296.967 206.176 294.623 203.835C293.256 202.47 291.378 200.666 290.121 199.198C288.572 197.387 288.964 197.81 287.621 195.842C286.43 194.099 284.681 191.53 283.619 189.706C282.521 187.821 282.047 187.326 281.118 185.352C280.3 183.613 279.798 182.012 279.117 180.215C278.111 177.558 277.542 176.03 277.117 173.221C276.621 169.942 276.617 165.728 276.617 164.871C276.617 164.013 276.783 161.066 277.117 158.734C277.45 156.403 277.617 154.88 278.117 151.882C278.617 148.885 279.117 146.412 279.618 144.248C280.118 142.083 280.986 140.643 282.119 137.895C282.92 135.952 283.772 134.182 284.619 132.259C285.85 129.463 287.711 126.043 288.121 125.265C288.53 124.486 289.761 122.551 290.121 121.91C290.482 121.269 292.122 118.579 293.122 116.914C294.123 115.249 295.146 113.16 296.123 110.92C297.111 108.657 297.794 106.508 298.124 104.784C298.878 100.847 298.954 100.571 298.454 101.428C297.172 103.626 297.559 102.683 296.123 104.784C295.176 106.17 292.899 109.554 291.923 110.92C290.946 112.285 289.951 113.815 289.121 115.274C289.121 115.274 284.422 121.692 283.619 122.767Z" fill="#D3DDD6"/>
<path d="M322.632 92.6529C326.634 97.1488 338.094 104.373 339.138 107.14C339.84 109 332.483 114.486 332.636 115.132C332.84 116 335.637 119.628 335.637 121.127C335.637 121.368 335.528 121.643 335.32 121.941C335.195 122.119 335.534 122.306 335.34 122.5C335.34 122.5 336.121 121.627 336.121 121.127C336.121 120.627 333.34 115.132 333.34 115.132C333.34 115.132 340.34 109 339.84 107C339.34 105 336.582 103.903 331.84 100C331.593 99.7963 327.081 96.1978 326.84 96C323.85 93.5461 323.202 92.6529 323.202 92.6529L321.923 91.5C321.74 91.6 321.632 91.6538 321.632 91.6538C321.632 91.6538 322.404 92.3968 322.632 92.6529Z" fill="#3A533F"/>
<path d="M329.34 126C328.84 126.5 333.136 127.122 334.136 128.121C335.137 129.12 331.135 133.116 331.135 133.116C331.135 133.116 334.364 141.53 332.135 146.104C331.4 147.613 331.341 148.001 329.34 149.5C327.339 150.999 307.648 150.6 307.648 150.6L307.107 150.958L311.84 151H316.34H321.34H324.84C324.84 151 328.059 150.632 328.34 150.5C328.621 150.368 328.84 150.5 329.84 150C330.828 149.506 331.84 148 332.34 147C332.59 146.5 333.215 144.988 333.34 144C333.561 142.257 333.513 141.249 333.34 139.5C333.223 138.318 332.84 136.5 332.84 136.5L332.34 134.5L331.84 133C331.84 133 333.057 131.885 333.84 130.5C334.623 129.115 334.84 128.5 334.84 128C334.84 127.5 330.299 126.245 330.07 126.122C329.84 126 330.84 125.5 330.84 125.5L331.912 124.785C331.582 124.996 331.123 124.814 330.84 125C330.089 125.493 329.84 125.5 329.34 126Z" fill="#3A533F"/>
<path d="M300.574 41.8482C307.928 49.3327 319.059 63.7459 320.131 72.671L320.215 75.4118C320.529 75.6557 320.654 76.0348 320.243 76.3617L320.632 89.1561C320.632 89.1561 320.913 89.052 321.335 88.8695L320.84 76.5L320.62 72.671L319.34 68L318.34 65.5L316.84 63L315.34 60.5L313.84 58L311.84 54.5L309.84 52L307.34 49L305.84 47L303.84 45L300.574 41.8482Z" fill="#3A533F"/>
<path d="M331.912 124.785L335.34 122.5C335.534 122.306 335.195 122.119 335.32 121.941L330.84 125C331.123 124.814 331.582 124.996 331.912 124.785Z" fill="#3A533F"/>
<path d="M297.124 101.786C295.623 103.618 292.622 109.279 292.622 109.279C292.622 109.279 290.248 112.677 288.621 114.774C286.751 117.183 285.561 118.419 283.619 120.769C281.852 122.907 280.931 124.165 279.117 126.264C277.04 128.668 275.602 129.779 273.615 132.259C270.705 135.892 269.595 138.311 267.113 142.25C264.919 145.733 263.512 147.59 261.611 151.241C260.321 153.72 259.521 155.095 258.61 157.735C257.823 160.017 257.604 161.368 257.11 163.73C256.223 167.97 255.815 170.393 255.609 174.72C255.498 177.058 255.358 178.387 255.609 180.715C255.889 183.302 256.119 184.652 256.61 187.209C257.093 189.729 257.335 191.256 258.11 193.703C258.901 196.198 259.328 197.915 260.611 200.197C262.203 203.028 263.468 204.889 265.113 207.69C266.35 209.799 267.215 211.179 268.614 213.185C270.273 215.565 271.61 217.082 273.615 219.18C275.523 221.175 277.103 222.787 279.117 224.675C280.832 226.282 282.332 227.643 284.119 229.171C286.228 230.973 288.973 233.409 291.122 235.165C293.27 236.921 299.124 241.16 299.124 241.16L303.626 244.656L306.627 247.154C306.627 247.154 308.877 248.694 310.628 250.651C312.196 252.402 313.086 252.875 314.63 254.647C317.633 258.096 317.579 258.347 320.132 262.141C321.402 264.029 322.072 265.123 323.133 267.136C324.232 269.222 326.535 273.477 327.5 275.628C329.503 280.093 329.166 279.453 330.635 284.121C331.658 287.371 332.133 289.243 332.636 292.613C333.241 296.67 333.5 298.003 333.5 302.104C333.5 306.206 333.5 309.598 332.636 313.594C332.245 315.403 332.016 317.223 331.5 319C330.774 321.5 330.14 323.06 329.5 325.583C328.953 327.739 328.368 328.693 327.634 330.793C326.569 333.842 326.104 334.697 324.633 337.572C323.52 339.749 322.767 340.901 321.632 343.067C320.46 347.554 317.631 354.057 317.631 354.057L319.5 352.5C319.5 352.5 321.132 350.5 321.632 350C321.875 349.758 324.633 346.064 325.633 345.065C326.121 344.091 326.377 343.615 326.633 343.139L326.634 343.138L327.634 341.21C328.415 339.65 329.388 337.651 330.135 336.074C330.958 334.337 331.911 332.858 332.636 331.078C333.498 328.963 333.355 329.369 334.136 327.223C334.918 325.077 335.561 322.939 336.137 320.729C336.881 317.872 337.937 312.543 338.138 309.598C338.351 306.483 338.138 305.226 338.138 302.104C338.138 298.593 337.849 297.617 337.638 294.112C337.437 290.778 336.91 288.259 336.637 287.118C336.062 284.718 335.435 281.96 334.637 279.625C333.499 276.296 333.425 275.404 332.136 272.131C331.046 269.366 329.569 266.742 328.134 264.139C326.645 261.437 325.462 259.63 323.633 257.145C321.573 254.347 319.887 252.295 317.631 249.652C315.389 247.025 314.691 245.577 312.129 243.657C308.127 240.66 305.917 239.452 305.126 238.662C304.626 238.162 297.575 233.025 297.124 232.667C296.672 232.309 292.926 229.979 290.121 227.672C287.028 225.127 285.552 224.047 282.619 221.319C279.887 218.78 278.988 218.061 276.617 215.183C274.826 213.011 271.948 209.189 271.615 208.689C271.281 208.19 268.249 204.31 266.613 201.196C264.911 197.957 265.112 198.199 264.112 195.842C263.612 194.962 262.644 192.309 262.612 192.204C261.651 189.133 261.107 187.532 260.611 184.353C260.069 180.878 259.946 178.874 260.111 175.361C260.249 172.412 260.421 170.239 261.111 167.368C261.688 164.969 262.42 163.243 263.112 160.874C264.067 157.603 264.434 156.936 265.613 153.739C266.911 150.218 268.114 147.245 268.114 147.245L270.614 142.25C272.277 139.315 272.753 138.091 274.616 135.256C276.459 132.45 275.614 133.455 277.617 130.76C278.578 129.466 282.816 123.843 283.619 122.767C284.422 121.692 289.121 115.274 289.121 115.274C289.951 113.815 290.946 112.285 291.923 110.92C292.899 109.554 295.176 106.17 296.123 104.784C297.559 102.683 297.172 103.626 298.454 101.428C297.788 102.329 297.623 101.177 297.124 101.786Z" fill="#E1EBE3"/>
</svg>
